<svg fill="none" xmlns="http://www.w3.org/2000/svg">
<path d="M20 48L34.7224 81H5.27757L20 48Z" fill="#FB923C"/>
<path d="M105.253 48L125 80H85L105.253 48Z" fill="#FB923C"/>
<path d="M35 48L49.7224 81H20.2776L35 48Z" fill="#FB923C"/>
<path d="M100 53L68.734 53.051" stroke="#FB923C" stroke-width="8"/>
<path d="M103.052 75.7874L67.5 75.7874" stroke="#FB923C" stroke-width="8"/>
<path d="M97.6398 53.5598L67.4641 74.7654" stroke="#FB923C" stroke-width="8"/>
<path d="M105 68L112.794 80H97.2058L105 68Z" fill="white"/>
<path d="M35.5 71L40.2631 81.5H30.7369L35.5 71Z" fill="white"/>
<path d="M19.5 71L24.2631 81.5H14.7369L19.5 71Z" fill="white"/>
<path fill-rule="evenodd" clip-rule="evenodd" d="M59.8813 47.1676C50.8585 45.8911 42.4779 52.3925 41.1627 61.6887C39.8476 70.985 46.0959 79.5559 55.1187 80.8324C64.1416 82.1089 72.5222 75.6075 73.8374 66.3113C75.1525 57.015 68.9042 48.4441 59.8813 47.1676ZM65.6663 53.721C61.0354 49.791 53.7568 50.5543 49.4091 55.4259C45.0614 60.2975 44.4163 68.4126 49.0472 72.3427C62.4388 57.3376 61.8701 57.9746 61.509 58.3793C61.3394 58.5693 61.2155 58.7081 62.6049 57.1513C64.5283 54.9962 65.349 54.0766 65.6663 53.721ZM65.6663 53.721C65.6663 53.721 65.6663 53.721 65.6663 53.721Z" fill="#FB923C"/>
</svg>
